# xmcd
#
# Track frame offsets:
#	150
#	18688
#	43311
#	73952
#	102053
#	129479
#	147960
#	170725
#	190290
#	205657
#	220585
#
# Disc length: 3244 seconds
#
# Revision: 0
# Processed by: cddbd v1.5PL3 Copyright (c) Steve Scherf et al.
# Submitted via: dBpowerAMP V4.0
#
DISCID=a90caa0b
DTITLE=Johnny Mack - Gave Myself The Blues
DYEAR=2003
DGENRE=Blues
TTITLE0=House Party Y'all
TTITLE1=Crosstown Girl
TTITLE2=Looking For An Angel
TTITLE3=Go On To School
TTITLE4=Can't Take It With You
TTITLE5=My Baby's Got It
TTITLE6=Gave Myself The Blues
TTITLE7=Wait An See
TTITLE8=My Baby's Out There
TTITLE9=Sugar Bee
TTITLE10=Quit Hounding My Dog!
EXTD=
EXTT0=
EXTT1=
EXTT2=
EXTT3=
EXTT4=
EXTT5=
EXTT6=
EXTT7=
EXTT8=
EXTT9=
EXTT10=
PLAYORDER=
